<?xml version="1.0" encoding="UTF-8" standalone="no"?>
<svg
   width="1400"
   height="1400"
   viewBox="0 0 1400 1400"
   fill="none"
   version="1.1"
   id="svg64"
   sodipodi:docname="logo_proba.svg"
   inkscape:version="1.2.2 (732a01da63, 2022-12-09)"
   xmlns:inkscape="http://www.inkscape.org/namespaces/inkscape"
   xmlns:sodipodi="http://sodipodi.sourceforge.net/DTD/sodipodi-0.dtd"
   xmlns="http://www.w3.org/2000/svg"
   xmlns:svg="http://www.w3.org/2000/svg">
  <defs
     id="defs68" />
  <sodipodi:namedview
     id="namedview66"
     pagecolor="#ffffff"
     bordercolor="#000000"
     borderopacity="0.25"
     inkscape:showpageshadow="2"
     inkscape:pageopacity="0.0"
     inkscape:pagecheckerboard="0"
     inkscape:deskcolor="#d1d1d1"
     showgrid="false"
     inkscape:zoom="0.67332011"
     inkscape:cx="415.10716"
     inkscape:cy="729.22224"
     inkscape:window-width="1920"
     inkscape:window-height="1017"
     inkscape:window-x="-8"
     inkscape:window-y="-8"
     inkscape:window-maximized="1"
     inkscape:current-layer="svg64" />
  <circle
     style="fill:#e1aa21;fill-opacity:1;fill-rule:evenodd;stroke:#673d16;stroke-width:15;stroke-dasharray:none;stroke-opacity:1"
     id="path368"
     cy="738.61462"
     cx="725.24805"
     r="547.14337" />
  <g
     id="g17088"
     transform="translate(-9.5444669,-6)">
    <path
       d="m 526.56894,1063.8615 -54.618,75.228 h -200.951 l 148.395,-103.052 h -65.9535 l 105.1125,-57.709 -39.159,4.122 c 49.137,-32.553 73.129,-55.545 100.99,-116.449 -104.082,0 -150.1921,-56.678 -154.5773,-159.73 -5.8761,-138.089 70.0753,-154.578 70.0753,-154.578 4.122,-170.035 170.036,-305.034 336.98,-289.57571 81.41,7.5383 229.80496,90.68611 250.41596,245.26371 0,0 65.54,34.006 89.655,43.281 24.114,9.276 18.549,40.191 0,40.191 h -108.205 v 99.96 c 24.092,6.789 43.316,19.223 60.801,42.251 42.251,55.648 51.033,138.857 0,195.799 -48.026,53.587 -124.02796,54.668 -218.46996,0 -14.735,10.201 -22.826,13.319 -37.099,16.488 -9.86,13.071 -12.632,20.274 -14.427,32.977 103.126,21.421 151.133,62.872 228.77496,160.761 H 868.70094 c -30.786,-45.305 -55.745,-67.556 -120.571,-98.93 l -38.129,-32.977 7.214,28.855 c -46.341,-1.598 -69.963,5.606 -110.266,24.732 l 14.427,-48.434 -94.807,110.265 z"
       fill="#231702"
       id="path36"
       style="fill:#693b24;fill-opacity:1" />
    <path
       d="m 1054.1939,885.5835 c -5.153,0 -152.75896,-19.882 -154.57796,-22.672 -12.77,-19.581 5.478,-57.768 26.793,-85.533 20.733,-27.006 48.435,-47.404 73.167,-47.404 54.61796,0 70.07596,155.609 54.61796,155.609 z"
       fill="#ffffff"
       id="path38" />
    <path
       d="m 963.50894,671.2325 c 0,46.101 -50.446,80.382 -99.961,80.382 -49.515,0 -72.136,-39.431 -72.136,-85.532 0,-46.1 50.445,-80.381 99.96,-80.381 49.515,0 72.137,39.431 72.137,85.531 z"
       fill="#ffffff"
       id="path40" />
    <rect
       x="905.44202"
       y="366.24701"
       width="174.617"
       height="33.309601"
       transform="rotate(12.563)"
       fill="#231702"
       id="rect42"
       style="fill:#2c1a0b;fill-opacity:1" />
    <path
       d="m 996.48494,752.6455 36.06796,26.793 c 0,0 9.275,-14.885 -7.213,-26.793 -16.489,-11.909 -28.85496,0 -28.85496,0 z"
       fill="#231702"
       id="path44"
       style="fill:#2c1a0b;fill-opacity:1" />
    <path
       d="m 1064.4989,852.4975 v 14.249 c -68.20896,7.694 -104.93496,8.949 -168.93096,8.142 l -6.257,-57.498 c 55.268,14.383 102.394,44.125 175.18796,35.107 z"
       fill="#231702"
       id="path46"
       style="fill:#2c1a0b;fill-opacity:1" />
    <circle
       cx="907.86096"
       cy="659.8985"
       r="25.763"
       fill="#231702"
       id="circle48" />
    <path
       d="m 1023.2789,507.3815 76.258,38.129 -624.49396,-1.03 c 0,0 31.946,-265.901 291.637,-235.9889 196.829,22.6714 215.378,198.8899 215.378,198.8899 z"
       fill="#eeaf00"
       id="path50" />
    <path
       d="m 1023.2789,507.3815 76.258,38.129 H 475.04294 c 0,0 25.763,-243.7288 252.477,-221.5612 154.056,15.0632 192.707,183.4322 192.707,183.4322 z"
       fill="#be8c02"
       id="path52" />
    <path
       d="m 661.27994,372.3835 c 39.995,-47.0947 60.573,-59.034 103.503,-63.892 l -15.459,-39.15964 c -37.877,15.54574 -57.021,10.76234 -83.472,11.33584 -60.726,26.7539 -86.722,37.456 -133.967,72.1363 l -83.472,204.0425 c -111.2965,77.289 -88.6248,274.118 100.991,283.393 189.616,9.274 60.801,-261.752 60.801,-261.752 v -37.099 c -2.937,-53.861 1.436,-82.956 30.916,-130.876 76.201,10.902 121.765,93.777 136.028,103.052 14.263,9.275 25.148,5.153 30.465,-12.366 5.317,-17.519 -46.843,-104.122 -146.334,-128.815 z"
       fill="#231702"
       id="path54"
       style="fill:#331e0f;fill-opacity:1" />
    <path
       d="m 543.49994,456.8865 h -41.664 c 13.053,-39.508 26.042,-55.509 56.679,-85.533 h 37.098 c -23.746,32.601 -46.166,48.257 -52.113,85.533 z"
       fill="#be8c02"
       id="path56" />
    <path
       fill-rule="evenodd"
       clip-rule="evenodd"
       d="m 565.72794,584.5665 c 39.58,20.738 66.984,65.592 66.984,117.583 0,71.712 -52.136,129.845 -116.449,129.845 -64.312,0 -116.448,-58.133 -116.448,-129.845 0,-55.528 31.26,-102.915 75.227,-121.475 v -65.049 h 21.642 v 58.506 c 6.365,-1.201 12.907,-1.827 19.579,-1.827 9.59,0 18.909,1.292 27.824,3.729 v -60.408 h 21.641 z"
       fill="#be8c02"
       id="path58" />
    <circle
       cx="479.16495"
       cy="703.18048"
       r="44.312302"
       fill="#231702"
       id="circle60"
       style="fill:#502d16;fill-opacity:1" />
    <path
       d="m 583.24694,705.2415 c -8.769,-50.198 -34.368,-79.26 -86.563,-99.107 v -31.769 c 16.08,-3.224 24.866,-3.129 40.19,0 28.006,6.29 44.096,15.353 63.892,36.068 31.053,32.494 35.545,65.921 32.977,110.265 -16.108,62.895 -44.313,96.869 -96.869,110.266 l -18.55,1.03 c 38.708,-30.037 74.494,-71.967 64.923,-126.753 z"
       fill="#eeaf00"
       id="path62" />
  </g>
</svg>
