<?xml version="1.0" encoding="UTF-8" standalone="no"?>
<svg
   width="858"
   height="879"
   viewBox="0 0 858 879"
   fill="none"
   version="1.1"
   id="svg64"
   sodipodi:docname="ngineers logo.svg"
   inkscape:version="1.2.2 (732a01da63, 2022-12-09)"
   xmlns:inkscape="http://www.inkscape.org/namespaces/inkscape"
   xmlns:sodipodi="http://sodipodi.sourceforge.net/DTD/sodipodi-0.dtd"
   xmlns="http://www.w3.org/2000/svg"
   xmlns:svg="http://www.w3.org/2000/svg">
  <defs
     id="defs68" />
  <sodipodi:namedview
     id="namedview66"
     pagecolor="#ffffff"
     bordercolor="#000000"
     borderopacity="0.25"
     inkscape:showpageshadow="2"
     inkscape:pageopacity="0.0"
     inkscape:pagecheckerboard="0"
     inkscape:deskcolor="#d1d1d1"
     showgrid="false"
     inkscape:zoom="0.95221843"
     inkscape:cx="382.79032"
     inkscape:cy="441.07527"
     inkscape:window-width="1920"
     inkscape:window-height="1017"
     inkscape:window-x="-8"
     inkscape:window-y="-8"
     inkscape:window-maximized="1"
     inkscape:current-layer="svg64" />
  <path
     d="M255.569 802.951L200.951 878.179H0L148.395 775.127H82.4415L187.554 717.418L148.395 721.54C197.532 688.987 221.524 665.995 249.385 605.091C145.303 605.091 99.1929 548.413 94.8077 445.361C88.9316 307.272 164.883 290.783 164.883 290.783C169.005 120.748 334.919 -14.251 501.863 1.20729C583.273 8.74559 731.668 91.8934 752.279 246.471C752.279 246.471 817.819 280.477 841.934 289.752C866.048 299.028 860.483 329.943 841.934 329.943H733.729V429.903C757.821 436.692 777.045 449.126 794.53 472.154C836.781 527.802 845.563 611.011 794.53 667.953C746.504 721.54 670.502 722.621 576.06 667.953C561.325 678.154 553.234 681.272 538.961 684.441C529.101 697.512 526.329 704.715 524.534 717.418C627.66 738.839 675.667 780.29 753.309 878.179H597.701C566.915 832.874 541.956 810.623 477.13 779.249L439.001 746.272L446.215 775.127C399.874 773.529 376.252 780.733 335.949 799.859L350.376 751.425L255.569 861.69V802.951Z"
     fill="#231702"
     id="path36"
     style="fill:#693b24;fill-opacity:1" />
  <path
     d="M783.194 624.673C778.041 624.673 630.435 604.791 628.616 602.001C615.846 582.42 634.094 544.233 655.409 516.468C676.142 489.462 703.844 469.064 728.576 469.064C783.194 469.064 798.652 624.673 783.194 624.673Z"
     fill="white"
     id="path38" />
  <path
     d="M692.509 410.322C692.509 456.423 642.063 490.704 592.548 490.704C543.033 490.704 520.412 451.273 520.412 405.172C520.412 359.072 570.857 324.791 620.372 324.791C669.887 324.791 692.509 364.222 692.509 410.322Z"
     fill="white"
     id="path40" />
  <rect
     x="533.1"
     y="293.513"
     width="174.617"
     height="33.3096"
     transform="rotate(12.563 533.1 293.513)"
     fill="#231702"
     id="rect42"
     style="fill:#2c1a0b;fill-opacity:1" />
  <path
     d="M725.485 491.735L761.553 518.528C761.553 518.528 770.828 503.643 754.34 491.735C737.851 479.826 725.485 491.735 725.485 491.735Z"
     fill="#231702"
     id="path44"
     style="fill:#2c1a0b;fill-opacity:1" />
  <path
     d="M793.499 591.587V605.836C725.29 613.53 688.564 614.785 624.568 613.978L618.311 556.48C673.579 570.863 720.705 600.605 793.499 591.587Z"
     fill="#231702"
     id="path46"
     style="fill:#2c1a0b;fill-opacity:1" />
  <circle
     cx="636.861"
     cy="398.988"
     r="25.763"
     fill="#231702"
     id="circle48" />
  <path
     d="M752.279 246.471L828.537 284.6L204.043 283.57C204.043 283.57 235.989 17.669 495.68 47.5811C692.509 70.2525 711.058 246.471 711.058 246.471H752.279Z"
     fill="#EEAF00"
     id="path50" />
  <path
     d="M752.279 246.471L828.537 284.6H204.043C204.043 284.6 229.806 40.8712 456.52 63.0388C610.576 78.102 649.227 246.471 649.227 246.471H752.279Z"
     fill="#BE8C02"
     id="path52" />
  <path
     d="M390.28 111.473C430.275 64.3783 450.853 52.439 493.783 47.581L478.324 8.42136C440.447 23.9671 421.303 19.1837 394.852 19.7572C334.126 46.5111 308.13 57.2132 260.885 91.8935L177.413 295.936C66.1165 373.225 88.7882 570.054 278.404 579.329C468.02 588.603 339.205 317.577 339.205 317.577V280.478C336.268 226.617 340.641 197.522 370.121 149.602C446.322 160.504 491.886 243.379 506.149 252.654C520.412 261.929 531.297 257.807 536.614 240.288C541.931 222.769 489.771 136.166 390.28 111.473Z"
     fill="#231702"
     id="path54"
     style="fill:#331e0f;fill-opacity:1" />
  <path
     d="M272.5 195.976L230.836 195.976C243.889 156.468 256.878 140.467 287.515 110.443H324.613C300.867 143.044 278.447 158.7 272.5 195.976Z"
     fill="#BE8C02"
     id="path56" />
  <path
     fill-rule="evenodd"
     clip-rule="evenodd"
     d="M294.728 323.656C334.308 344.394 361.712 389.248 361.712 441.239C361.712 512.951 309.576 571.084 245.263 571.084C180.951 571.084 128.815 512.951 128.815 441.239C128.815 385.711 160.075 338.324 204.042 319.764V254.715H225.684V313.221C232.049 312.02 238.591 311.394 245.263 311.394C254.853 311.394 264.172 312.686 273.087 315.123V254.715H294.728V323.656Z"
     fill="#BE8C02"
     id="path58" />
  <circle
     cx="208.165"
     cy="442.27"
     r="44.3123"
     fill="#231702"
     id="circle60"
     style="fill:#502d16;fill-opacity:1" />
  <path
     d="M312.247 444.331C303.478 394.133 277.879 365.071 225.684 345.224V313.455C241.764 310.231 250.55 310.326 265.874 313.455C293.88 319.745 309.97 328.808 329.766 349.523C360.819 382.017 365.311 415.444 362.743 459.788C346.635 522.683 318.43 556.657 265.874 570.054L247.324 571.084C286.032 541.047 321.818 499.117 312.247 444.331Z"
     fill="#EEAF00"
     id="path62" />
</svg>
