<?xml version="1.0" encoding="UTF-8" standalone="no"?>
<svg
   width="894"
   height="730"
   viewBox="0 0 894 730"
   fill="none"
   version="1.1"
   id="svg521"
   sodipodi:docname="ngineers logo 2.svg"
   inkscape:version="1.2.2 (732a01da63, 2022-12-09)"
   xmlns:inkscape="http://www.inkscape.org/namespaces/inkscape"
   xmlns:sodipodi="http://sodipodi.sourceforge.net/DTD/sodipodi-0.dtd"
   xmlns="http://www.w3.org/2000/svg"
   xmlns:svg="http://www.w3.org/2000/svg">
  <defs
     id="defs525" />
  <sodipodi:namedview
     id="namedview523"
     pagecolor="#ffffff"
     bordercolor="#000000"
     borderopacity="0.25"
     inkscape:showpageshadow="2"
     inkscape:pageopacity="0.0"
     inkscape:pagecheckerboard="0"
     inkscape:deskcolor="#d1d1d1"
     showgrid="false"
     inkscape:zoom="0.8107512"
     inkscape:cx="356.45954"
     inkscape:cy="337.95818"
     inkscape:window-width="1920"
     inkscape:window-height="1017"
     inkscape:window-x="-8"
     inkscape:window-y="-8"
     inkscape:window-maximized="1"
     inkscape:current-layer="svg521" />
  <path
     d="M119.6 723.6C119.6 726.4 113.333 727.8 100.8 727.8C88.2667 727.8 81.4667 726.8 80.4 724.8L47 662.4V724.6C47 727 40.8 728.2 28.4 728.2C16.1333 728.2 10 727 10 724.6V590.8C10 588.8 15.2667 587.8 25.8 587.8C29.9333 587.8 34.7333 588.2 40.2 589C45.8 589.667 49.2 591 50.4 593L82.4 654.6V591.8C82.4 589.267 88.6 588 101 588C113.4 588 119.6 589.267 119.6 591.8V723.6ZM213.688 686.2L214.088 659C214.088 657.133 216.021 655.933 219.888 655.4C223.754 654.733 226.954 654.4 229.488 654.4L237.288 655C242.354 655.8 244.888 657.2 244.888 659.2L244.088 721.8C241.421 723.667 236.021 725.533 227.888 727.4C219.888 729.133 210.688 730 200.288 730C180.954 730 165.354 723.733 153.488 711.2C141.621 698.667 135.688 680.267 135.688 656C135.688 635.333 141.488 618.533 153.088 605.6C164.688 592.667 180.754 586.2 201.288 586.2C210.621 586.2 219.021 587.133 226.488 589C234.088 590.733 239.288 593.133 242.088 596.2C242.221 597.267 242.288 599.267 242.288 602.2C242.288 605.133 241.288 609.333 239.288 614.8C237.288 620.133 235.021 624.133 232.487 626.8C229.954 629.467 228.088 630.8 226.888 630.8C225.821 630.8 224.621 630.333 223.288 629.4C222.088 628.333 219.621 627.267 215.888 626.2C212.154 625 208.554 624.4 205.088 624.4C196.821 624.4 190.088 627.067 184.888 632.4C179.821 637.733 177.288 646 177.288 657.2C177.288 668.4 179.888 676.933 185.088 682.8C190.421 688.533 196.488 691.4 203.288 691.4C210.221 691.4 213.688 689.667 213.688 686.2ZM277.106 693.6V622.4H262.906C260.64 622.4 259.04 619.533 258.106 613.8C257.706 611 257.506 608.133 257.506 605.2C257.506 602.267 257.706 599.4 258.106 596.6C259.04 590.867 260.64 588 262.906 588H330.106C332.373 588 333.906 590.867 334.706 596.6C335.24 599.4 335.506 602.267 335.506 605.2C335.506 608.133 335.24 611 334.706 613.8C333.906 619.533 332.373 622.4 330.106 622.4H316.706V693.6H330.706C332.973 693.6 334.573 696.467 335.506 702.2C336.04 705 336.306 707.867 336.306 710.8C336.306 713.733 336.04 716.6 335.506 719.4C334.573 725.133 332.973 728 330.706 728H263.306C261.04 728 259.506 725.133 258.706 719.4C258.173 716.6 257.906 713.733 257.906 710.8C257.906 707.867 258.173 705 258.706 702.2C259.506 696.467 261.04 693.6 263.306 693.6H277.106ZM459.248 723.6C459.248 726.4 452.982 727.8 440.448 727.8C427.915 727.8 421.115 726.8 420.048 724.8L386.648 662.4V724.6C386.648 727 380.448 728.2 368.048 728.2C355.782 728.2 349.648 727 349.648 724.6V590.8C349.648 588.8 354.915 587.8 365.448 587.8C369.582 587.8 374.382 588.2 379.848 589C385.448 589.667 388.848 591 390.048 593L422.048 654.6V591.8C422.048 589.267 428.248 588 440.648 588C453.048 588 459.248 589.267 459.248 591.8V723.6ZM544.336 643.6C546.869 643.6 548.136 648.267 548.136 657.6C548.136 660.4 547.803 663.733 547.136 667.6C546.603 671.333 545.536 673.2 543.936 673.2H518.536V693.2H555.336C557.603 693.2 559.136 696.133 559.936 702C560.336 704.533 560.536 707.267 560.536 710.2C560.536 713 560.136 716.667 559.336 721.2C558.536 725.733 557.203 728 555.336 728H486.936C481.869 728 479.336 725.933 479.336 721.8V593.2C479.336 589.733 480.869 588 483.936 588H555.536C558.336 588 559.736 593.933 559.736 605.8C559.736 617.533 558.336 623.4 555.536 623.4H518.536V643.6H544.336ZM642.969 643.6C645.502 643.6 646.769 648.267 646.769 657.6C646.769 660.4 646.435 663.733 645.769 667.6C645.235 671.333 644.169 673.2 642.569 673.2H617.169V693.2H653.969C656.235 693.2 657.769 696.133 658.569 702C658.969 704.533 659.169 707.267 659.169 710.2C659.169 713 658.769 716.667 657.969 721.2C657.169 725.733 655.835 728 653.969 728H585.569C580.502 728 577.969 725.933 577.969 721.8V593.2C577.969 589.733 579.502 588 582.569 588H654.169C656.969 588 658.369 593.933 658.369 605.8C658.369 617.533 656.969 623.4 654.169 623.4H617.169V643.6H642.969ZM714.802 725.2C714.802 727.333 708.468 728.4 695.802 728.4C683.002 728.4 676.602 727.4 676.602 725.4V595C676.602 590.333 679.068 588 684.002 588H722.202C757.268 588 774.802 601.667 774.802 629C774.802 637.267 773.202 644.8 770.002 651.6C766.802 658.267 762.268 663.6 756.402 667.6L781.602 709.6C780.535 712.8 777.068 716.467 771.202 720.6C763.202 726.333 756.602 729.2 751.402 729.2C746.202 729.2 742.335 727.333 739.802 723.6L721.002 679.8H714.802V725.2ZM714.802 623.4V653.4H715.802C728.468 653.4 734.802 648.133 734.802 637.6C734.802 632.8 733.535 629.267 731.002 627C728.602 624.6 724.602 623.4 719.002 623.4H714.802ZM799.77 679.2C802.304 681.2 806.637 683.933 812.77 687.4C819.037 690.867 824.97 692.6 830.57 692.6C836.304 692.6 839.17 690.4 839.17 686C839.17 684 838.37 682.267 836.77 680.8C835.17 679.2 832.237 677.4 827.97 675.4C823.704 673.4 820.504 671.867 818.37 670.8C816.237 669.6 813.37 667.733 809.77 665.2C806.304 662.533 803.637 659.8 801.77 657C796.437 649.4 793.77 639.733 793.77 628C793.77 616.267 798.104 606.4 806.77 598.4C815.57 590.267 827.037 586.2 841.17 586.2C850.77 586.2 859.637 587.267 867.77 589.4C875.904 591.4 880.104 594.067 880.37 597.4C880.37 597.8 880.37 598.2 880.37 598.6C880.37 603.267 878.904 609.2 875.97 616.4C873.037 623.467 870.97 627.4 869.77 628.2C861.237 623.8 853.57 621.6 846.77 621.6C840.104 621.6 836.77 624 836.77 628.8C836.77 631.733 839.237 634.333 844.17 636.6C845.237 637.133 846.77 637.867 848.77 638.8C850.77 639.733 853.037 640.867 855.57 642.2C858.237 643.4 861.037 645 863.97 647C867.037 648.867 870.304 651.4 873.77 654.6C880.837 661.267 884.37 670.067 884.37 681C884.37 695.267 880.437 706.933 872.57 716C864.704 725.067 852.57 729.733 836.17 730C828.17 730 820.904 729.333 814.37 728C807.97 726.667 802.37 724.067 797.57 720.2C792.77 716.333 790.37 711.667 790.37 706.2C790.37 700.733 791.37 695.333 793.37 690C795.37 684.533 797.504 680.933 799.77 679.2Z"
     fill="#231702"
     id="path491"
     style="fill:#6b3c24;fill-opacity:1" />
  <path
     d="M334.225 522.249L298.701 571.179H168L264.518 504.152H221.621L289.988 466.618L264.518 469.299C296.478 448.126 312.082 433.172 330.204 393.559C262.507 393.559 232.516 356.695 229.664 289.669C225.842 199.854 275.242 189.129 275.242 189.129C277.923 78.536 385.835 -9.26903 494.418 0.785238C547.369 5.68825 643.886 59.7686 657.292 160.308C657.292 160.308 699.92 182.426 715.604 188.459C731.289 194.491 727.669 214.599 715.604 214.599H645.227V279.614C660.897 284.03 673.4 292.117 684.772 307.095C712.253 343.289 717.965 397.409 684.772 434.445C653.536 469.299 604.103 470.002 542.677 434.445C533.093 441.08 527.831 443.108 518.547 445.169C512.134 453.671 510.331 458.355 509.164 466.618C576.238 480.55 607.463 507.511 657.962 571.179H556.752C536.729 541.712 520.495 527.24 478.332 506.833L453.532 485.385L458.224 504.152C428.083 503.113 412.719 507.799 386.506 520.239L395.889 488.736L334.225 560.454V522.249Z"
     fill="#231702"
     id="path493"
     style="fill:#6b3c24;fill-opacity:1" />
  <path
     d="M677.399 406.295C674.048 406.295 578.043 393.364 576.86 391.549C568.554 378.814 580.423 353.976 594.287 335.918C607.771 318.353 625.789 305.085 641.875 305.085C677.399 305.085 687.453 406.295 677.399 406.295Z"
     fill="white"
     id="path495" />
  <path
     d="M618.416 266.879C618.416 296.863 585.606 319.16 553.401 319.16C521.196 319.16 506.483 293.514 506.483 263.529C506.483 233.545 539.293 211.248 571.498 211.248C603.703 211.248 618.416 236.895 618.416 266.879Z"
     fill="white"
     id="path497" />
  <rect
     x="514.735"
     y="190.905"
     width="113.573"
     height="21.665"
     transform="rotate(12.563 514.735 190.905)"
     fill="#231702"
     id="rect499"
     style="fill:#2d1a0b;fill-opacity:1" />
  <path
     d="M639.865 319.831L663.324 337.257C663.324 337.257 669.356 327.576 658.632 319.831C647.908 312.085 639.865 319.831 639.865 319.831Z"
     fill="#231702"
     id="path501" />
  <path
     d="M684.102 384.776V394.043C639.738 399.048 615.851 399.864 574.227 399.339L570.158 361.942C606.104 371.297 636.756 390.641 684.102 384.776Z"
     fill="#231702"
     id="path503"
     style="fill:#2d1a0b;fill-opacity:1" />
  <circle
     cx="582.222"
     cy="259.507"
     r="16.7566"
     fill="#231702"
     id="circle505" />
  <path
     d="M657.292 160.308L706.891 185.108L300.712 184.437C300.712 184.437 321.49 11.4922 490.396 30.9473C618.417 45.6931 630.481 160.308 630.481 160.308H657.292Z"
     fill="#EEAF00"
     id="path507" />
  <path
     d="M657.292 160.308L706.891 185.108H300.712C300.712 185.108 317.469 26.5832 464.926 41.0013C565.126 50.7986 590.266 160.308 590.266 160.308H657.292Z"
     fill="#BE8C02"
     id="path509" />
  <path
     d="M421.843 72.5036C447.857 41.8724 461.24 34.107 489.163 30.9473L479.108 5.47733C454.472 15.5884 442.021 12.4773 424.817 12.8503C385.32 30.2514 368.412 37.2122 337.683 59.7687L283.391 192.481C211.003 242.75 225.749 370.77 349.077 376.803C472.406 382.835 388.623 206.556 388.623 206.556V182.427C386.713 147.395 389.557 128.471 408.731 97.3033C458.294 104.394 487.929 158.297 497.206 164.329C506.483 170.362 513.562 167.681 517.021 156.286C520.479 144.892 486.553 88.5643 421.843 72.5036Z"
     fill="#231702"
     id="path511"
     style="fill:#341e0e;fill-opacity:1" />
  <path
     d="M345.237 127.465L318.139 127.465C326.628 101.769 335.077 91.3613 355.003 71.8333H379.133C363.687 93.0377 349.105 103.221 345.237 127.465Z"
     fill="#BE8C02"
     id="path513" />
  <path
     fill-rule="evenodd"
     clip-rule="evenodd"
     d="M359.695 210.51C385.438 223.998 403.262 253.172 403.262 286.988C403.262 333.63 369.352 371.441 327.522 371.441C285.693 371.441 251.783 333.63 251.783 286.988C251.783 250.871 272.115 220.05 300.712 207.978V165.67H314.788V203.723C318.928 202.941 323.183 202.534 327.522 202.534C333.76 202.534 339.821 203.375 345.619 204.96V165.67H359.695V210.51Z"
     fill="#BE8C02"
     id="path515" />
  <circle
     cx="303.393"
     cy="287.658"
     r="28.8213"
     fill="#231702"
     id="circle517" />
  <path
     d="M371.09 288.998C365.386 256.349 348.736 237.447 314.787 224.538V203.875C325.246 201.778 330.961 201.84 340.928 203.875C359.143 207.966 369.608 213.861 382.484 227.334C402.681 248.468 405.603 270.21 403.932 299.052C393.456 339.96 375.111 362.057 340.928 370.77L328.863 371.441C354.039 351.904 377.314 324.632 371.09 288.998Z"
     fill="#EEAF00"
     id="path519" />
</svg>
